<svg width="20" height="20" viewBox="0 0 20 20" fill="none" xmlns="http://www.w3.org/2000/svg">
  <g clip-path="url(#clip0_3170_1636)">
    <path d="M18.7835 5.35004C18.6845 4.95455 18.4829 4.59218 18.199 4.29955C17.9152 4.00691 17.5591 3.79436 17.1668 3.68337C15.7335 3.33337 10.0002 3.33337 10.0002 3.33337C10.0002 3.33337 4.26682 3.33337 2.83348 3.71671C2.44119 3.82769 2.08513 4.04024 1.80127 4.33288C1.51741 4.62552 1.31581 4.98788 1.21682 5.38337C0.954496 6.838 0.826181 8.31363 0.833484 9.79171C0.824134 11.2809 0.952457 12.7678 1.21682 14.2334C1.32595 14.6166 1.53207 14.9652 1.81527 15.2454C2.09847 15.5257 2.44917 15.7282 2.83348 15.8334C4.26682 16.2167 10.0002 16.2167 10.0002 16.2167C10.0002 16.2167 15.7335 16.2167 17.1668 15.8334C17.5591 15.7224 17.9152 15.5098 18.199 15.2172C18.4829 14.9246 18.6845 14.5622 18.7835 14.1667C19.0438 12.723 19.1721 11.2587 19.1668 9.79171C19.1762 8.3025 19.0478 6.81562 18.7835 5.35004Z" stroke="#FBCFE8" stroke-width="2" stroke-linecap="round" stroke-linejoin="round"/>
    <path d="M8.125 12.5167L12.9167 9.79165L8.125 7.06665V12.5167Z" stroke="#FBCFE8" stroke-width="2" stroke-linecap="round" stroke-linejoin="round"/>
  </g>
  <defs>
    <clipPath id="clip0_3170_1636">
      <rect width="20" height="20" fill="white"/>
    </clipPath>
  </defs>
</svg>